:version 1.10
:name ASF
:units
  mass 1
  length 1
  angle deg
:documentation
  ASF file generated by Kaydara
:root
  axis xyz
  order  tx ty tz rx ry rz
  position 0 0 0
  orientation 0 0 0
:bonedata
  begin
    id 1
    name RightUpLegDummy
    direction -0.718183 -0.695806 0.00816078
    length 4.904
    axis 0 0 0 xyz
  end
  begin
    id 2
    name RightUpLeg
    direction 3.53989e-006 -0.995788 0.0916897
    length 17.4976
    axis -3.49089 -0.000906621 0.000287158 xyz
    dof rx ry rz
  end
  begin
    id 3
    name RightLeg
    direction 0.00371093 -0.995096 -0.0988418
    length 16.5821
    axis 3.68512 0.0193738 -0.131023 xyz
    dof rx ry rz
  end
  begin
    id 4
    name RightFoot
    direction 0.000791514 -0.46099 0.887405
    length 3.77069
    axis 4.84075e-005 -0.120479 -0.188788 xyz
    dof rx ry rz
  end
  begin
    id 5
    name RightToes
    direction 0.00124746 -0.014064 0.9999
    length 3.85082
    axis 0.00048216 0.542163 -0.142577 xyz
    dof rx ry rz
  end
  begin
    id 6
    name SpineDummy
    direction 8.36599e-015 1 5.97571e-016
    length 4.6813
    axis 0 0 0 xyz
  end
  begin
    id 7
    name Spine
    direction -4.63632e-008 0.999988 0.00495137
    length 10.1015
    axis -0.00138897 0.000121419 3.25764e-006 xyz
    dof rx ry rz
  end
  begin
    id 8
    name Spine1
    direction 0 0 0
    length 0
    axis -0.00138896 0.000121452 2.39764e-006 xyz
    dof rx ry rz
  end
  begin
    id 9
    name HEadDummy
    direction -3.91456e-008 0.999999 0.00127422
    length 3.43865
    axis -0.00138896 0.000121452 2.39764e-006 xyz
  end
  begin
    id 10
    name HEad
    direction -0.0222688 0.980941 0.193023
    length 5.12695
    axis -0.00138895 0.000121452 2.39764e-006 xyz
    dof rx ry rz
  end
  begin
    id 11
    name LeftShoulder1Dummy
    direction 0.998891 -0.0402508 -0.0244456
    length 3.5433
    axis -0.00138896 0.000121452 2.39764e-006 xyz
  end
  begin
    id 12
    name LeftShoulder1
    direction 0.99951 -0.000327743 0.0313091
    length 4.05031
    axis -0.00138896 0.000121452 2.39764e-006 xyz
    dof rx ry rz
  end
  begin
    id 13
    name LeftArm
    direction 0.998561 -0.00100054 -0.0536182
    length 10.3537
    axis -23.1894 0.134784 0.96751 xyz
    dof rx ry rz
  end
  begin
    id 14
    name LeftForeArm
    direction 0.998903 0.00866434 0.046012
    length 8.70632
    axis -9.91835 -0.06569 -0.177792 xyz
    dof rx ry rz
  end
  begin
    id 15
    name LeftHand
    direction 0.992938 -0.0411636 0.11126
    length 5.32135
    axis -0.00960227 -0.00340091 0.185174 xyz
    dof rx ry rz
  end
  begin
    id 16
    name RightShoulderDummy
    direction -0.998891 -0.0402509 -0.0244414
    length 3.5433
    axis -0.00138896 0.000121452 2.39764e-006 xyz
  end
  begin
    id 17
    name RightShoulder
    direction -0.99951 -0.000327827 0.0313133
    length 4.05031
    axis 0.215806 0.000203644 -0.00680151 xyz
    dof rx ry rz
  end
  begin
    id 18
    name RightArm
    direction -0.998573 -0.000999583 -0.053403
    length 10.3947
    axis -23.2009 -0.134239 -0.9641 xyz
    dof rx ry rz
  end
  begin
    id 19
    name RightForeArm
    direction -0.998898 0.00868026 0.0461306
    length 8.68355
    axis -9.92322 0.0658061 0.178869 xyz
    dof rx ry rz
  end
  begin
    id 20
    name RightHand
    direction -0.992843 -0.0414603 0.112003
    length 5.28593
    axis -0.00960634 0.00330671 -0.185226 xyz
    dof rx ry rz
  end
  begin
    id 21
    name LeftUpLegDummy
    direction 0.718183 -0.695806 0.00816078
    length 4.904
    axis 0 0 0 xyz
  end
  begin
    id 22
    name LeftUpLeg
    direction -6.8115e-006 -0.995793 0.0916336
    length 17.4976
    axis -3.48766 0.00143441 -0.000523914 xyz
    dof rx ry rz
  end
  begin
    id 23
    name LeftLeg
    direction -0.00601357 -0.995091 -0.0987824
    length 16.5821
    axis 3.68177 -0.00654038 -0.00028478 xyz
    dof rx ry rz
  end
  begin
    id 24
    name LeftFoot
    direction -0.00417578 -0.460984 0.887399
    length 3.77069
    axis 1.87232e-006 4.66002e-005 -8.1837e-006 xyz
    dof rx ry rz
  end
  begin
    id 25
    name LeftToes
    direction 0.00818058 -0.00485161 0.999955
    length 3.85048
    axis 1.06246e-005 4.65855e-005 -8.18502e-006 xyz
    dof rx ry rz
  end
:hierarchy
  begin
    root RightUpLegDummy SpineDummy LeftUpLegDummy
    RightUpLegDummy RightUpLeg
    RightUpLeg RightLeg
    RightLeg RightFoot
    RightFoot RightToes
    SpineDummy Spine
    Spine Spine1
    Spine1 HEadDummy LeftShoulder1Dummy RightShoulderDummy
    HEadDummy HEad
    LeftShoulder1Dummy LeftShoulder1
    LeftShoulder1 LeftArm
    LeftArm LeftForeArm
    LeftForeArm LeftHand
    RightShoulderDummy RightShoulder
    RightShoulder RightArm
    RightArm RightForeArm
    RightForeArm RightHand
    LeftUpLegDummy LeftUpLeg
    LeftUpLeg LeftLeg
    LeftLeg LeftFoot
    LeftFoot LeftToes
  end

:SAMPLES-PER-SECOND 30
:FULLY-SPECIFIED
:DEGREES
1
root  -2.38213 40.9165 0.406876 1.04149 -87.9855 -2.02519
RightUpLeg  4.43469 -2.18881 -1.32303
RightLeg  -0.970203 -20.8221 1.0542
RightFoot  -0.767804 -0.271408 2.96851
RightToes  -3.13006e-008 1.75238e-005 3.56266e-009
Spine  -3.24755 4.88125 6.44622
Spine1  12.7843 7.2118 -7.98654
HEad  -16.9523 -9.11318 17.7811
LeftShoulder1  4.03064 -8.33166 -28.0007
LeftArm  1.69308 29.9748 -39.4657
LeftForeArm  155.663 -73.4717 -145.338
LeftHand  -0.38787 -4.74602 4.73744
RightShoulder  2.08546 5.86151 15.5333
RightArm  -17.604 55.1777 38.0099
RightForeArm  51.697 73.2262 32.5936
RightHand  -1.84564 7.8318 -16.4591
LeftUpLeg  1.69399 1.85492 3.00218
LeftLeg  1.62326 10.4482 -0.538925
LeftFoot  -1.36138 0.312487 -3.51404
LeftToes  4.76866e-008 1.46233e-008 1.30548e-009
2
root  -2.36096 40.9148 0.421965 -0.164856 -89.6569 -0.792099
RightUpLeg  4.15819 -2.04797 -1.29329
RightLeg  -0.912359 -19.3598 0.974549
RightFoot  -0.748305 -0.258832 2.7849
RightToes  -3.13006e-008 1.75238e-005 3.56266e-009
Spine  -4.33678 4.3822 6.17353
Spine1  13.6918 6.60801 -7.69415
HEad  -15.1068 -6.73583 16.4731
LeftShoulder1  4.03108 -8.33046 -28.0075
LeftArm  0.928958 30.4962 -39.887
LeftForeArm  156.026 -73.5748 -145.179
LeftHand  -0.390449 -4.92449 4.69447
RightShoulder  2.1802 5.96497 16.3618
RightArm  -17.378 52.7176 38.3343
RightForeArm  47.6256 72.7967 32.3377
RightHand  -1.34023 6.76871 -13.0285
LeftUpLeg  1.85554 2.08876 3.11354
LeftLeg  1.68046 11.8318 -0.636916
LeftFoot  -1.50242 0.317383 -3.59578
LeftToes  4.76866e-008 1.46233e-008 1.30548e-009
3
root  -2.34246 40.9087 0.41685 165.169 -88.8939 -166.301
RightUpLeg  4.0664 -1.98242 -1.2165
RightLeg  -0.712842 -18.0717 0.921288
RightFoot  -0.790816 -0.246644 2.6086
RightToes  -3.13006e-008 1.75238e-005 3.56266e-009
Spine  -4.88551 3.63885 5.43637
Spine1  14.0766 5.65059 -6.98982
HEad  -13.1575 -4.85505 15.4914
LeftShoulder1  3.98563 -8.21954 -27.9398
LeftArm  0.460877 30.71 -40.3792
LeftForeArm  156.136 -73.489 -145.381
LeftHand  -0.38062 -4.88976 4.59735
RightShoulder  2.35123 6.14978 17.8083
RightArm  -17.3227 49.2282 37.2287
RightForeArm  45.4496 72.9779 33.3563
RightHand  -0.419747 5.47891 -4.4304
LeftUpLeg  2.16085 2.28746 3.25778
LeftLeg  1.82191 12.96 -0.614192
LeftFoot  -1.70469 0.322971 -3.70738
LeftToes  4.76866e-008 1.46233e-008 1.30548e-009
4
root  -2.33939 40.9016 0.403043 174.753 -87.2603 -176.291
RightUpLeg  4.18198 -1.64469 -1.00613
RightLeg  -0.433247 -16.8857 0.539263
RightFoot  -0.822167 -0.246498 2.62025
RightToes  -3.13006e-008 1.75238e-005 3.56266e-009
Spine  -5.25376 3.0704 4.43821
Spine1  14.5673 4.78025 -5.83174
HEad  -11.405 -3.00324 14.3171
LeftShoulder1  4.04333 -8.28227 -28.2573
LeftArm  0.416569 29.9939 -40.7809
LeftForeArm  156.044 -73.726 -144.853
LeftHand  -0.402576 -4.91561 4.83479
RightShoulder  2.50047 6.3436 18.9413
RightArm  -18.213 45.7153 35.3278
RightForeArm  43.8536 73.0407 33.9209
RightHand  0.552124 4.26583 6.02977
LeftUpLeg  2.87743 2.62588 3.45577
LeftLeg  1.78584 14.1527 -0.7575
LeftFoot  -1.89073 0.318518 -3.71739
LeftToes  4.76866e-008 1.46233e-008 1.30548e-009
5
root  -2.30891 40.8865 0.401224 171.258 -86.1901 -172.851
RightUpLeg  4.03926 -1.42816 -0.707576
RightLeg  -0.347172 -16.1486 0.521376
RightFoot  -0.795705 -0.237986 2.50302
RightToes  -3.13006e-008 1.75238e-005 3.56266e-009
Spine  -5.90303 2.16673 3.92525
Spine1  15.3994 3.67322 -5.21557
HEad  -11.2359 -0.231289 12.5499
LeftShoulder1  3.95909 -8.06078 -28.1827
LeftArm  0.737413 28.3747 -41.2862
LeftForeArm  155.337 -73.9529 -144.23
LeftHand  -0.384227 -4.82317 4.66505
RightShoulder  2.52297 6.17602 19.6584
RightArm  -19.4335 42.811 34.3861
RightForeArm  42.1297 72.7292 33.4172
RightHand  0.815158 5.05841 8.75831
LeftUpLeg  2.69077 2.80695 3.72147
LeftLeg  2.55491 14.9004 -0.463895
LeftFoot  -2.23839 0.322758 -3.88468
LeftToes  4.76866e-008 1.46233e-008 1.30548e-009
6
root  -2.25703 40.873 0.384083 171.511 -85.2998 -173.337
RightUpLeg  3.97268 -1.43792 -0.633638
RightLeg  -0.0447129 -15.3005 0.499155
RightFoot  -0.870434 -0.228067 2.36471
RightToes  -3.13006e-008 1.75238e-005 3.56266e-009
Spine  -6.16287 1.17744 2.84507
Spine1  16.0575 2.3305 -3.95403
HEad  -11.4208 2.76122 10.4891
LeftShoulder1  4.14692 -8.38779 -28.8403
LeftArm  1.2035 26.9151 -40.8011
LeftForeArm  154.956 -73.9554 -144.158
LeftHand  -0.3812 -4.6518 4.69894
RightShoulder  2.64726 6.42534 20.3046
RightArm  -21.798 40.9235 33.8422
RightForeArm  41.1623 72.4911 32.9717
RightHand  0.419256 5.46678 4.17523
LeftUpLeg  2.83077 2.85432 3.78655
LeftLeg  2.89025 15.5691 -0.255932
LeftFoot  -2.36589 0.309925 -3.76744
LeftToes  4.76866e-008 1.46233e-008 1.30548e-009
7
root  -2.20378 40.8618 0.372635 171.709 -84.3235 -173.648
RightUpLeg  3.73894 -1.33353 -0.514921
RightLeg  0.313168 -14.4596 0.395495
RightFoot  -0.925704 -0.226075 2.34997
RightToes  -3.13006e-008 1.75238e-005 3.56266e-009
Spine  -6.12262 0.305385 1.8867
Spine1  16.0096 1.09344 -2.76654
HEad  -11.3114 5.66525 8.66813
LeftShoulder1  4.3264 -8.73157 -29.335
LeftArm  1.9002 25.1619 -40.656
LeftForeArm  153.929 -74.3682 -143.009
LeftHand  -0.387668 -4.80919 4.70919
RightShoulder  2.75448 6.55012 21.0899
RightArm  -25.6716 40.502 34.5125
RightForeArm  40.5554 72.1353 32.1505
RightHand  0.0466896 5.55389 0.143366
LeftUpLeg  2.8109 2.9914 3.90482
LeftLeg  3.34955 16.3518 -0.106209
LeftFoot  -2.54214 0.298491 -3.68091
LeftToes  4.76866e-008 1.46233e-008 1.30548e-009
8
root  -2.15081 40.8596 0.359906 172.364 -83.0667 -174.21
RightUpLeg  3.31243 -1.02643 -0.313091
RightLeg  0.521653 -13.5663 0.196604
RightFoot  -0.833968 -0.232969 2.47348
RightToes  -3.13006e-008 1.75238e-005 3.56266e-009
Spine  -5.87633 -0.33983 1.2227
Spine1  15.2647 0.149536 -1.86926
HEad  -10.4929 7.8917 6.74004
LeftShoulder1  4.59186 -9.26743 -29.9435
LeftArm  2.36273 23.2864 -40.3004
LeftForeArm  152.174 -74.9635 -141.204
LeftHand  -0.358058 -4.81345 4.37136
RightShoulder  2.90436 6.77911 21.9963
RightArm  -30.1033 40.9873 35.5081
RightForeArm  39.917 71.6915 31.1618
RightHand  -0.0807235 5.64651 -1.17274
LeftUpLeg  2.7462 3.19791 4.06688
LeftLeg  3.54469 17.3512 -0.10232
LeftFoot  -2.68726 0.303117 -3.78719
LeftToes  4.76866e-008 1.46233e-008 1.30548e-009
9
root  -2.11312 40.8589 0.363514 173.062 -81.9036 -174.749
RightUpLeg  2.99487 -0.853889 -0.228934
RightLeg  0.430539 -12.609 0.162621
RightFoot  -0.696252 -0.234336 2.51145
RightToes  -3.13006e-008 1.75238e-005 3.56266e-009
Spine  -6.1239 -0.945616 1.10989
Spine1  15.1724 -0.592016 -1.57022
HEad  -10.1222 10.4304 4.79082
LeftShoulder1  4.77798 -9.59842 -30.4625
LeftArm  3.07248 21.4557 -39.8747
LeftForeArm  151.367 -75.3118 -140.105
LeftHand  -0.361776 -4.79658 4.41947
RightShoulder  2.96943 6.90083 22.3102
RightArm  -33.4587 41.9108 36.3481
RightForeArm  40.112 71.2655 30.1184
RightHand  -0.434923 5.32347 -5.01017
LeftUpLeg  2.66156 3.24644 4.09702
LeftLeg  3.64071 18.4354 -0.022823
LeftFoot  -2.78975 0.318961 -4.04198
LeftToes  4.76866e-008 1.46233e-008 1.30548e-009
